<?xml version="1.0" encoding="iso-8859-1"?>
<!-- Generator: Adobe Illustrator 19.0.0, SVG Export Plug-In . SVG Version: 6.00 Build 0)  -->
<svg version="1.1" id="Layer_1" xmlns="http://www.w3.org/2000/svg" xmlns:xlink="http://www.w3.org/1999/xlink" x="0px" y="0px"
	 viewBox="0 0 511.999 511.999" style="enable-background:new 0 0 511.999 511.999;" xml:space="preserve">
<g>
	<g>
		<g>
			<path d="M358.128,36.926c-2.894-4.201-7.558-7.586-14.26-10.348c-5.277-2.174-10.153-3.276-14.492-3.276
				c-4.214,0-7.937,1.022-11.051,2.956C300.934,12.405,279.45,4.834,257.018,4.834c-12.137,0-23.766,2.212-34.511,6.244
				c-13.881-4.048-23.3-8.54-23.314-8.547C193.4-0.371,178.81-4.87,168.41,15.896c-3.203,6.399-4.646,12.313-4.29,17.574
				c0.472,6.991,4.149,12.68,10.374,16.129c-10.111,15.469-15.999,33.936-15.999,53.755c-0.001,4.458,0.306,8.916,0.901,13.319
				c-7.681,4.346-10.388,13.307-8.004,26.794c1.551,8.774,4.146,23.459,19.893,23.459c1.55,0,3.116-0.138,4.65-0.41
				c1.483-0.262,3.064-0.57,4.719-0.915c10.857,13.288,24.948,23.4,40.668,29.53l-7.595,26.317h-28.964
				c-2.941,0-5.6,1.109-7.492,3.123c-1.857,1.979-2.822,4.702-2.646,7.481c1.302,20.2,17.4,36.236,37.285,37.82l-2.879,20.493
				c-7.157,0.186-12.926,6.053-12.926,13.253v157.079c-7.187,0.153-12.988,6.035-12.988,13.256v24.774
				c0,7.318,5.953,13.271,13.271,13.271h121.259c7.318,0,13.271-5.953,13.271-13.271v-24.774c0-7.223-5.802-13.104-12.988-13.256
				V303.621c0-7.2-5.768-13.067-12.924-13.253l-2.88-20.493c19.886-1.584,35.986-17.621,37.287-37.829
				c0.175-2.769-0.79-5.492-2.647-7.471c-1.891-2.014-4.551-3.124-7.492-3.124H300.31l-7.578-26.255
				c10.302-4.004,19.919-9.752,28.452-17.085c3.785,0.88,7.312,1.514,10.094,1.786c0.861,0.083,1.734,0.124,2.595,0.124
				c16.035,0,20.614-12.403,21.632-22.805c0.479-4.898,0.446-12.052-2.429-18.328c-0.726-1.585-1.601-3.023-2.598-4.315
				c3.352-10.03,5.063-20.503,5.064-31.215c0-10.589-1.667-20.965-4.952-30.906c4.119-5.935,7.002-11.413,9.006-16.273
				C363.246,47.323,360.813,40.822,358.128,36.926z M182.651,23.026c4.39-8.768,7.057-7.434,9.432-6.245
				c0.063,0.032,4.006,1.933,10.595,4.437c-6.687,4.438-12.803,9.667-18.211,15.557c-0.706-0.328-1.365-0.642-1.951-0.936
				c-1.968-0.985-2.41-2.009-2.506-3.443C179.851,30.071,180.791,26.743,182.651,23.026z M257.018,20.76
				c19.011,0,37.207,6.486,51.869,18.341c-7.904,14.431-29.703,31.134-60.724,46.381c-26.76,13.153-54.82,22.59-73.237,26.94
				c-0.328-3.006-0.508-6.035-0.506-9.067C174.42,57.812,211.475,20.76,257.018,20.76z M312.705,89.03
				c-12.506,9.991-27.255,19.045-42.613,26.972l-10.448-18.458c16.619-8.455,29.21-16.545,38.759-24.043L312.705,89.03z
				 M255.759,123.012c-15.506,7.186-31.106,13.197-45.184,17.852l-6.081-20.432c12.688-4.209,26.754-9.592,40.765-15.967
				L255.759,123.012z M173.161,150.836c-0.623,0.11-1.255,0.166-1.876,0.166c-1.439,0-2.389,0-4.211-10.306
				c-1.79-10.125-0.042-10.434,2.375-10.861c5.381-0.951,12.145-2.544,19.825-4.715l6.081,20.433
				C186.832,147.974,179.264,149.758,173.161,150.836z M314.992,476.61v19.465h-115.95V476.61H314.992z M302.004,306.275v154.411
				H212.03V306.275H302.004z M225.113,290.35l2.858-20.336h58.093l2.857,20.336H225.113z M322.257,237.375
				c-3.331,9.75-12.604,16.712-23.364,16.712h-83.752c-10.761,0-20.036-6.966-23.365-16.712H322.257z M230.304,221.45l6.274-21.737
				c6.666,1.424,13.515,2.165,20.441,2.165c6.939,0,13.78-0.747,20.444-2.153l6.27,21.725H230.304z M312.156,158.897
				c-2.875-1.029-5.422-2.102-7.197-3.118c-1.564-0.894-1.811-1.571-1.723-3.033c0.098-1.64,0.831-4.676,3.77-9.819
				c3.648-6.385,5.39-6.708,5.702-6.708c0.291,0,1.139,0.098,2.743,0.994c0.123,0.068,0.248,0.135,0.376,0.198
				c0.521,0.256,1.201,0.542,1.973,0.844L312.156,158.897z M312.707,120.294c-11.112,0-17.01,10.325-19.53,14.733
				c-3.636,6.362-5.547,11.847-5.84,16.769c-0.456,7.643,2.995,13.969,9.719,17.81c1.561,0.892,3.432,1.783,5.501,2.647
				c-13.42,8.892-29.17,13.699-45.538,13.699c-22.205,0-43.46-9.056-58.88-24.685c20.964-5.883,47.903-15.556,73.357-28.068
				c31.896-15.68,52.841-31.447,66.593-45.676c1.006,5.185,1.529,10.474,1.529,15.833c-0.001,8.069-1.156,15.97-3.423,23.581
				c-2.857-0.367-11-2.74-13.209-3.755C319.484,121.265,316.027,120.294,312.707,120.294z M339.654,155.663
				c-0.825,8.431-2.798,8.431-5.782,8.431c-0.356,0-0.717-0.018-1.06-0.051c-1.479-0.145-3.311-0.448-5.319-0.858l5.638-20.615
				c0.641,0.109,1.239,0.198,1.757,0.247c1.886,0.184,2.892,0.915,3.708,2.7C339.67,147.861,340.055,151.559,339.654,155.663z
				 M344.872,50.106c-4.125,10.003-11.191,19.5-20.223,28.385l-14.311-15.537c8.03-8.115,12.448-15.238,14.815-20.98
				c0.868-2.106,1.855-2.749,4.222-2.749c1.545,0,4.262,0.36,8.425,2.075C346.947,45.074,345.845,47.748,344.872,50.106z"/>
			<path d="M231.178,447.004c4.399,0,7.963-3.564,7.963-7.963v-81.48c0-4.399-3.564-7.963-7.963-7.963s-7.963,3.564-7.963,7.963
				v81.48C223.215,443.44,226.78,447.004,231.178,447.004z"/>
			<path d="M218.388,94.294c15.288,0,27.727-12.438,27.727-27.726s-12.438-27.727-27.727-27.727
				c-15.288,0-27.726,12.439-27.726,27.727S203.1,94.294,218.388,94.294z M218.388,54.766c6.508,0,11.802,5.294,11.802,11.802
				c0,6.507-5.294,11.801-11.802,11.801c-6.507,0-11.801-5.294-11.801-11.801C206.588,60.06,211.881,54.766,218.388,54.766z"/>
			<path d="M231.178,341.812c4.399,0,7.963-3.564,7.963-7.963v-4.871c0-4.399-3.564-7.963-7.963-7.963s-7.963,3.564-7.963,7.963
				v4.871C223.215,338.248,226.78,341.812,231.178,341.812z"/>
		</g>
	</g>
</g>
<g>
</g>
<g>
</g>
<g>
</g>
<g>
</g>
<g>
</g>
<g>
</g>
<g>
</g>
<g>
</g>
<g>
</g>
<g>
</g>
<g>
</g>
<g>
</g>
<g>
</g>
<g>
</g>
<g>
</g>
</svg>
