<?xml version="1.0" encoding="iso-8859-1"?>
<!-- Generator: Adobe Illustrator 19.0.0, SVG Export Plug-In . SVG Version: 6.00 Build 0)  -->
<svg version="1.1" id="Layer_1" xmlns="http://www.w3.org/2000/svg" xmlns:xlink="http://www.w3.org/1999/xlink" x="0px" y="0px"
	 viewBox="0 0 512.001 512.001" style="enable-background:new 0 0 512.001 512.001;" xml:space="preserve">
<g>
	<g>
		<path d="M256,134.74c-39.491,0-71.619,32.129-71.619,71.618c0,39.492,32.129,71.619,71.619,71.619
			c39.491,0,71.618-32.129,71.618-71.619C327.619,166.868,295.491,134.74,256,134.74z M256.001,262.389
			c-30.895,0-56.03-25.135-56.03-56.03c0-30.894,25.135-56.029,56.03-56.029c30.895,0,56.029,25.135,56.029,56.029
			C312.03,237.253,286.894,262.389,256.001,262.389z"/>
	</g>
</g>
<g>
	<g>
		<path d="M256,283.664c-43.401,0-78.711,35.31-78.711,78.71v121.26H334.71v-121.26C334.71,318.974,299.401,283.664,256,283.664z
			 M192.878,468.045V362.374c0-34.805,28.316-63.121,63.121-63.121c34.805,0,63.12,28.316,63.12,63.121v105.671H192.878z"/>
	</g>
</g>
<g>
	<g>
		<path d="M433.29,177.29c-43.401,0-78.709,35.31-78.709,78.71v121.26h157.421V256C512,212.599,476.69,177.29,433.29,177.29z
			 M370.168,361.672V256c0-34.805,28.316-63.121,63.121-63.121c34.805,0,63.12,28.316,63.12,63.121v105.672H370.168z"/>
	</g>
</g>
<g>
	<g>
		<path d="M78.71,177.29C35.31,177.29,0,212.599,0,256v121.26h157.421V256C157.421,212.599,122.112,177.29,78.71,177.29z
			 M141.832,361.672H15.589V256c0-34.805,28.316-63.121,63.121-63.121c34.806,0,63.121,28.316,63.121,63.121V361.672z"/>
	</g>
</g>
<g>
	<g>
		<rect x="249.055" y="319" width="14.55" height="15.589"/>
	</g>
</g>
<g>
	<g>
		<rect x="249.055" y="347.06" width="14.55" height="15.589"/>
	</g>
</g>
<g>
	<g>
		<rect x="249.055" y="376.16" width="14.55" height="15.589"/>
	</g>
</g>
<g>
	<g>
		<rect x="426.773" y="212.992" width="13.511" height="15.589"/>
	</g>
</g>
<g>
	<g>
		<rect x="426.773" y="241.053" width="13.511" height="15.589"/>
	</g>
</g>
<g>
	<g>
		<rect x="426.773" y="269.114" width="13.511" height="15.589"/>
	</g>
</g>
<g>
	<g>
		<rect x="72.376" y="212.992" width="13.511" height="15.589"/>
	</g>
</g>
<g>
	<g>
		<rect x="72.376" y="241.053" width="13.511" height="15.589"/>
	</g>
</g>
<g>
	<g>
		<rect x="72.376" y="269.114" width="13.511" height="15.589"/>
	</g>
</g>
<g>
	<g>
		<path d="M256.327,156.015v15.589c18.707,0,34.427,15.409,34.427,35.156h15.589C306.344,178.7,283.348,156.015,256.327,156.015z"/>
	</g>
</g>
<g>
	<g>
		<path d="M288.779,217.947c-1.934,5.472-5.257,10.423-9.61,14.319l10.397,11.616c6.299-5.637,11.109-12.809,13.912-20.741
			L288.779,217.947z"/>
	</g>
</g>
<g>
	<g>
		<path d="M78.71,28.367c-39.491,0-71.618,32.129-71.618,71.618c0,39.491,32.128,71.619,71.618,71.619
			c39.491,0,71.619-32.129,71.619-71.619C150.33,60.495,118.201,28.367,78.71,28.367z M78.71,156.015
			c-30.895,0-56.029-25.135-56.029-56.03c0-30.894,25.134-56.029,56.029-56.029c30.895,0,56.03,25.135,56.03,56.029
			C134.741,130.88,109.605,156.015,78.71,156.015z"/>
	</g>
</g>
<g>
	<g>
		<path d="M78.609,49.641V65.23c19.746,0,34.857,15.776,34.857,34.484h15.589C129.055,72.692,106.669,49.641,78.609,49.641z"/>
	</g>
</g>
<g>
	<g>
		<path d="M111.489,111.573c-1.933,5.471-5.257,10.422-9.61,14.319l10.397,11.616c6.298-5.637,11.108-12.809,13.912-20.74
			L111.489,111.573z"/>
	</g>
</g>
<g>
	<g>
		<path d="M433.29,28.367c-39.491,0-71.618,32.129-71.618,71.618c0,39.491,32.127,71.619,71.618,71.619
			c39.491,0,71.619-32.129,71.619-71.619C504.909,60.495,472.78,28.367,433.29,28.367z M433.29,156.015
			c-30.895,0-56.029-25.135-56.029-56.03c0-30.894,25.134-56.029,56.029-56.029s56.03,25.135,56.03,56.029
			C489.32,130.88,464.184,156.015,433.29,156.015z"/>
	</g>
</g>
<g>
	<g>
		<path d="M433.006,49.641V65.23c19.746,0,35.039,15.776,35.039,34.484h15.589C483.634,72.692,461.067,49.641,433.006,49.641z"/>
	</g>
</g>
<g>
	<g>
		<path d="M466.069,111.572c-1.935,5.472-5.258,10.423-9.61,14.32l10.397,11.615c6.298-5.637,11.108-12.808,13.912-20.739
			L466.069,111.572z"/>
	</g>
</g>
<g>
</g>
<g>
</g>
<g>
</g>
<g>
</g>
<g>
</g>
<g>
</g>
<g>
</g>
<g>
</g>
<g>
</g>
<g>
</g>
<g>
</g>
<g>
</g>
<g>
</g>
<g>
</g>
<g>
</g>
</svg>
