<?xml version="1.0" encoding="iso-8859-1"?>
<!-- Generator: Adobe Illustrator 19.0.0, SVG Export Plug-In . SVG Version: 6.00 Build 0)  -->
<svg version="1.1" id="Capa_1" xmlns="http://www.w3.org/2000/svg" xmlns:xlink="http://www.w3.org/1999/xlink" x="0px" y="0px"
	 viewBox="0 0 512 512" style="enable-background:new 0 0 512 512;" xml:space="preserve">
<g>
	<g>
		<path d="M494.627,236.367h9.794c4.187,0,7.579-3.392,7.579-7.579v-45.47c0-4.187-3.392-7.579-7.579-7.579h-9.794
			c-8.203,0-14.878-6.674-14.878-14.878v-15.25c0-4.187-3.392-7.579-7.579-7.579H190.737c-4.187,0-7.579,3.392-7.579,7.579
			c0,4.187,3.392,7.579,7.579,7.579h273.854v7.671c0,16.562,13.474,30.036,30.036,30.036h2.215v30.312h-2.215
			c-16.562,0-30.036,13.474-30.036,30.036s13.474,30.036,30.036,30.036h2.215v30.312h-2.215c-16.562,0-30.036,13.474-30.036,30.036
			v17.181h-52.404c-4.187,0-7.579,3.392-7.579,7.579s3.392,7.579,7.579,7.579h59.983c4.187,0,7.579-3.392,7.579-7.579v-24.76
			c0-8.203,6.674-14.878,14.878-14.878h9.794c4.187,0,7.579-3.392,7.579-7.579v-45.47c0-4.187-3.392-7.579-7.579-7.579h-9.794
			c-8.203,0-14.878-6.674-14.878-14.878S486.423,236.367,494.627,236.367z"/>
	</g>
</g>
<g>
	<g>
		<path d="M345.665,358.81H47.409v-7.671c0-16.562-13.474-30.036-30.036-30.036h-2.215v-30.312h2.215
			c16.562,0,30.036-13.474,30.036-30.036s-13.474-30.036-30.036-30.036h-2.215v-30.312h2.215c16.562,0,30.036-13.474,30.036-30.036
			V153.19h86.493c4.187,0,7.579-3.392,7.579-7.579c0-4.187-3.392-7.579-7.579-7.579H39.83c-4.187,0-7.579,3.392-7.579,7.579v24.76
			c0,8.203-6.674,14.878-14.878,14.878H7.579c-4.187,0-7.579,3.392-7.579,7.579v45.47c0,4.187,3.392,7.579,7.579,7.579h9.794
			c8.203,0,14.878,6.674,14.878,14.878c0,8.204-6.674,14.878-14.878,14.878H7.579c-4.187,0-7.579,3.392-7.579,7.579v45.47
			c0,4.187,3.392,7.579,7.579,7.579h9.794c8.203,0,14.878,6.674,14.878,14.878v15.25c0,4.187,3.392,7.579,7.579,7.579h305.835
			c4.187,0,7.579-3.392,7.579-7.579S349.852,358.81,345.665,358.81z"/>
	</g>
</g>
<g>
	<g>
		<path d="M450.209,173.562H207.497c-4.187,0-7.579,3.392-7.579,7.579s3.392,7.579,7.579,7.579h235.135v134.559H71.28V188.72h71.096
			c4.187,0,7.579-3.392,7.579-7.579s-3.392-7.579-7.579-7.579H63.701c-4.186,0-7.579,3.393-7.579,7.579v149.717
			c0,4.187,3.392,7.579,7.579,7.579h386.508c4.187,0,7.579-3.392,7.579-7.579V181.141
			C457.788,176.954,454.396,173.562,450.209,173.562z"/>
	</g>
</g>
<g>
	<g>
		<path d="M139.729,228.615c-1.642,0-2.911,0.522-3.284,1.94l-11.344,40.45l-11.419-40.45c-0.373-1.418-1.641-1.94-3.283-1.94
			c-2.612,0-6.12,1.642-6.12,4.03c0,0.149,0.074,0.448,0.149,0.746l14.403,46.942c0.747,2.239,3.433,3.284,6.269,3.284
			c2.837,0,5.597-1.045,6.269-3.284L145.7,233.39c0.074-0.298,0.149-0.521,0.149-0.746
			C145.849,230.33,142.34,228.615,139.729,228.615z"/>
	</g>
</g>
<g>
	<g>
		<path d="M155.846,228.615c-2.463,0-4.851,0.896-4.851,2.985v48.51c0,2.015,2.388,3.06,4.851,3.06c2.388,0,4.852-1.045,4.852-3.06
			V231.6C160.698,229.511,158.234,228.615,155.846,228.615z"/>
	</g>
</g>
<g>
	<g>
		<path d="M188.311,228.615H173.31c-2.239,0-3.656,1.418-3.656,2.985h0.001v48.51c0,2.015,2.388,3.06,4.851,3.06
			c2.388,0,4.852-1.045,4.852-3.06v-17.314h8.358c9.851,0,17.538-4.702,17.538-16.942v-0.447
			C205.252,233.167,197.788,228.615,188.311,228.615z M195.549,246.6c0,5.822-2.985,8.582-7.836,8.582h-8.358v-18.061h8.358
			c4.851,0,7.836,2.761,7.836,8.582V246.6z"/>
	</g>
</g>
<g>
	<g>
		<path d="M236.02,261.227h-19.404c-1.79,0-2.984,1.791-2.984,4.03c0,2.388,1.194,3.955,2.984,3.955h19.404
			c1.567,0,3.135-1.567,3.135-3.955C239.154,263.018,237.587,261.227,236.02,261.227z"/>
	</g>
</g>
<g>
	<g>
		<path d="M275.065,228.615h-15.001c-2.239,0-3.656,1.418-3.656,2.985h0.001v48.51c0,2.015,2.388,3.06,4.851,3.06
			c2.388,0,4.852-1.045,4.852-3.06v-17.314h8.358c9.851,0,17.538-4.702,17.538-16.942v-0.447
			C292.006,233.167,284.542,228.615,275.065,228.615z M282.303,246.6c0,5.822-2.985,8.582-7.836,8.582h-8.358v-18.061h8.358
			c4.851,0,7.836,2.761,7.836,8.582V246.6z"/>
	</g>
</g>
<g>
	<g>
		<path d="M332.678,278.392l-14.404-46.942c-0.672-2.239-3.433-3.284-6.269-3.284c-2.762,0-5.523,1.045-6.195,3.284l-14.403,46.942
			c-0.075,0.299-0.148,0.597-0.148,0.746c0,2.389,3.508,4.031,6.118,4.03c1.642,0,2.91-0.522,3.283-1.94l2.837-9.925h17.09
			l2.837,9.925c0.373,1.418,1.642,1.94,3.284,1.94c2.611,0,6.12-1.716,6.12-4.03C332.827,278.915,332.752,278.691,332.678,278.392z
			 M305.513,263.69l6.493-22.912l6.494,22.912H305.513z"/>
	</g>
</g>
<g>
	<g>
		<path d="M346.334,242.27c0-3.582,3.06-5.747,8.433-5.747c6.269,0,7.985,2.837,10.298,2.837c2.687,0,3.881-3.434,3.881-5.15
			c0-4.925-9.777-5.97-14.18-5.97c-8.582,0-18.135,3.807-18.135,14.927c0,17.687,23.957,14.255,23.957,25.449
			c0,4.479-3.881,6.494-8.359,6.493c-7.613,0-9.628-5.748-12.687-5.748c-2.314,0-4.254,3.136-4.254,5.224
			c0,4.328,7.464,9.254,17.24,9.254c10.299,0,17.762-5.523,17.762-16.195C370.29,248.315,346.334,251.524,346.334,242.27z"/>
	</g>
</g>
<g>
	<g>
		<path d="M385.289,242.27c0-3.582,3.06-5.747,8.433-5.747c6.269,0,7.985,2.837,10.298,2.837c2.687,0,3.881-3.434,3.881-5.15
			c0-4.925-9.777-5.97-14.18-5.97c-8.582,0-18.135,3.807-18.135,14.927c0,17.687,23.957,14.255,23.957,25.449
			c0,4.479-3.881,6.494-8.359,6.493c-7.613,0-9.628-5.748-12.687-5.748c-2.314,0-4.254,3.136-4.254,5.224
			c0,4.328,7.464,9.254,17.24,9.254c10.299,0,17.762-5.523,17.762-16.195C409.245,248.315,385.289,251.524,385.289,242.27z"/>
	</g>
</g>
<g>
</g>
<g>
</g>
<g>
</g>
<g>
</g>
<g>
</g>
<g>
</g>
<g>
</g>
<g>
</g>
<g>
</g>
<g>
</g>
<g>
</g>
<g>
</g>
<g>
</g>
<g>
</g>
<g>
</g>
</svg>
