<?xml version="1.0" encoding="iso-8859-1"?>
<!-- Generator: Adobe Illustrator 19.0.0, SVG Export Plug-In . SVG Version: 6.00 Build 0)  -->
<svg version="1.1" id="Layer_1" xmlns="http://www.w3.org/2000/svg" xmlns:xlink="http://www.w3.org/1999/xlink" x="0px" y="0px"
	 viewBox="0 0 512 512" style="enable-background:new 0 0 512 512;" xml:space="preserve">
<g>
	<g>
		<path d="M288.071,400.902h-56.106v-0.001l-15.985-63.938H99.83l-15.985,63.938H19.907L0,480.531h307.978L288.071,400.902z
			 M112.081,352.653h91.648l12.062,48.247H100.02L112.081,352.653z M20.097,464.841l12.062-48.248h91.648l12.062,48.248H20.097z
			 M153.989,472.626l-14.009-56.034h28.016L153.989,472.626z M172.109,464.841l12.062-48.248h91.649l12.062,48.248H172.109z"/>
	</g>
</g>
<g>
	<g>
		<polygon points="496.309,31.469 496.309,464.535 313.25,464.535 313.25,480.226 512,480.226 512,31.469 		"/>
	</g>
</g>
<g>
	<g>
		<polygon points="399.026,37.745 399.026,53.436 410.209,53.436 337.731,125.916 317.751,105.934 188.323,235.361 199.418,246.457 
			317.751,128.124 337.731,148.105 422.039,63.798 422.039,76.449 437.73,76.449 437.73,37.745 		"/>
	</g>
</g>
<g>
	<g>
		<rect x="42.321" y="430.012" width="31.382" height="15.691"/>
	</g>
</g>
<g>
	<g>
		<rect x="90.442" y="430.012" width="15.691" height="15.691"/>
	</g>
</g>
<g>
	<g>
		<rect x="194.001" y="430.012" width="31.382" height="15.691"/>
	</g>
</g>
<g>
	<g>
		<rect x="242.12" y="430.012" width="15.691" height="15.691"/>
	</g>
</g>
<g>
	<g>
		<rect x="121.824" y="366.203" width="32.428" height="15.691"/>
	</g>
</g>
<g>
	<g>
		<rect x="169.942" y="366.203" width="15.691" height="15.691"/>
	</g>
</g>
<g>
	<g>
		<path d="M416.809,133.982v326.369H432.5V269.969h32.428v190.382h15.691V133.982H416.809z M464.927,254.278H432.5V149.673h32.428
			V254.278z"/>
	</g>
</g>
<g>
	<g>
		<path d="M337.309,182.1v278.251H353V245.91h31.382v214.441h15.691V182.1H337.309z M384.381,230.219H353v-32.428h31.382V230.219z"
			/>
	</g>
</g>
<g>
	<g>
		<path d="M256.763,238.587v157.954h15.691v-119.25h32.428v183.06h15.691V238.587H256.763z M304.881,261.601h-32.428v-7.322h32.428
			V261.601z"/>
	</g>
</g>
<g>
	<g>
		<path d="M177.262,278.337v54.395h15.691v-7.322h32.428v42.888h15.691v-89.961H177.262z M225.381,309.719h-32.428v-15.691h32.428
			V309.719z"/>
	</g>
</g>
<g>
</g>
<g>
</g>
<g>
</g>
<g>
</g>
<g>
</g>
<g>
</g>
<g>
</g>
<g>
</g>
<g>
</g>
<g>
</g>
<g>
</g>
<g>
</g>
<g>
</g>
<g>
</g>
<g>
</g>
</svg>
