<?xml version="1.0" encoding="iso-8859-1"?>
<!-- Generator: Adobe Illustrator 19.0.0, SVG Export Plug-In . SVG Version: 6.00 Build 0)  -->
<svg version="1.1" id="Layer_1" xmlns="http://www.w3.org/2000/svg" xmlns:xlink="http://www.w3.org/1999/xlink" x="0px" y="0px"
	 viewBox="0 0 512 512" style="enable-background:new 0 0 512 512;" xml:space="preserve">
<path style="fill:#FFDB2D;" d="M449.888,248.374H322.451c-9.024,0-16.34-7.316-16.34-16.34v-82.791c0-9.024,7.316-16.34,16.34-16.34
	h101.95c7.172,0,13.507,4.678,15.617,11.533l25.487,82.791C468.738,237.725,460.874,248.374,449.888,248.374z"/>
<path style="fill:#FF9900;" d="M466.05,227.227l-25.487-82.791c-2.11-6.855-8.444-11.533-15.617-11.533H409.6v115.472h40.833
	C461.419,248.374,469.283,237.726,466.05,227.227z"/>
<path style="fill:#B9F7F9;" d="M495.66,381.277h-48.477c-9.024,0-16.34-7.316-16.34-16.34c0-28.793-43.574-28.793-43.574,0
	c0,9.024-7.316,16.34-16.34,16.34h-48.477c-9.024,0-16.34-7.316-16.34-16.34V232.034c0-9.024,7.316-16.34,16.34-16.34H495.66
	c9.024,0,16.34,7.316,16.34,16.34v132.902C512,373.96,504.684,381.277,495.66,381.277z"/>
<path style="fill:#00D8E0;" d="M495.66,215.694H409.6v127.66c10.71,0.235,21.243,7.426,21.243,21.584
	c0,9.024,7.316,16.34,16.34,16.34h48.477c9.024,0,16.34-7.316,16.34-16.34V232.034C512,223.01,504.684,215.694,495.66,215.694z"/>
<path style="fill:#B9F7F9;" d="M322.451,317.004H16.34c-9.024,0-16.34-7.316-16.34-16.34V108.936c0-9.024,7.316-16.34,16.34-16.34
	h306.111c9.024,0,16.34,7.316,16.34,16.34v191.728C338.791,309.688,331.475,317.004,322.451,317.004z"/>
<g>
	<path style="fill:#00D8E0;" d="M322.451,92.596H153.6v224.409h168.851c9.024,0,16.34-7.316,16.34-16.34V108.936
		C338.791,99.912,331.475,92.596,322.451,92.596z"/>
	<path style="fill:#00D8E0;" d="M338.791,381.277H191.81c-8.988,0-16.59-7.182-16.521-16.17c0.222-28.992-43.796-29.046-43.573,0
		c0.069,8.988-7.533,16.17-16.521,16.17H16.34c-9.024,0-16.34-7.316-16.34-16.34v-80.613h338.791V381.277z"/>
</g>
<path style="fill:#00A2A9;" d="M153.6,284.323v59.018c10.838,0.007,21.676,7.13,21.775,21.349
	c0.063,9.122,7.231,16.584,16.353,16.584h147.063v-96.953H153.6V284.323z"/>
<g>
	<path style="fill:#A7A9AC;" d="M409.6,419.404c-30.034,0-54.468-24.434-54.468-54.468s24.434-54.468,54.468-54.468
		c30.034,0,54.468,24.434,54.468,54.468S439.634,419.404,409.6,419.404z"/>
	<path style="fill:#A7A9AC;" d="M153.502,419.404c-30.034,0-54.468-24.434-54.468-54.468s24.434-54.468,54.468-54.468
		s54.468,24.434,54.468,54.468S183.536,419.404,153.502,419.404z"/>
</g>
<g>
	<path style="fill:#808285;" d="M409.6,310.468v108.936c30.034,0,54.468-24.434,54.468-54.468S439.634,310.468,409.6,310.468z"/>
	<path style="fill:#808285;" d="M153.6,310.468v108.936c30.034,0,54.468-24.434,54.468-54.468S183.634,310.468,153.6,310.468z"/>
</g>
<g>
</g>
<g>
</g>
<g>
</g>
<g>
</g>
<g>
</g>
<g>
</g>
<g>
</g>
<g>
</g>
<g>
</g>
<g>
</g>
<g>
</g>
<g>
</g>
<g>
</g>
<g>
</g>
<g>
</g>
</svg>
