<?xml version="1.0" encoding="iso-8859-1"?>
<!-- Generator: Adobe Illustrator 19.0.0, SVG Export Plug-In . SVG Version: 6.00 Build 0)  -->
<svg version="1.1" id="Layer_1" xmlns="http://www.w3.org/2000/svg" xmlns:xlink="http://www.w3.org/1999/xlink" x="0px" y="0px"
	 viewBox="0 0 512 512" style="enable-background:new 0 0 512 512;" xml:space="preserve">
<path style="fill:#FFE49C;" d="M462.202,488.391H143.746c-10.875,0-19.692-8.817-19.692-19.692V144.547
	c0-10.875,8.817-19.692,19.692-19.692h70.123L321.858,16.867c31.306-31.309,85.009-9.099,85.009,35.212v72.775h55.334
	c27.459,0,49.798,22.339,49.798,49.798v263.941C512,466.052,489.661,488.391,462.202,488.391z"/>
<path style="fill:#8DC3E9;" d="M143.746,509.78H19.692C8.817,509.78,0,500.963,0,490.087V123.157
	c0-10.875,8.817-19.692,19.692-19.692h124.054c10.875,0,19.692,8.817,19.692,19.692v366.931
	C163.438,500.963,154.621,509.78,143.746,509.78z"/>
<path style="fill:#FFD155;" d="M462.202,124.854h-55.334V52.079c0-44.312-53.705-66.522-85.009-35.212L256,82.723v405.668h206.202
	c27.459,0,49.798-22.339,49.798-49.798V174.651C512,147.193,489.661,124.854,462.202,124.854z"/>
<path style="fill:#FFBE00;" d="M387.174,378.558c-10.875,0-19.692-8.817-19.692-19.692V254.378c0-10.875,8.817-19.692,19.692-19.692
	s19.692,8.817,19.692,19.692v104.487C406.867,369.741,398.051,378.558,387.174,378.558z"/>
<g>
</g>
<g>
</g>
<g>
</g>
<g>
</g>
<g>
</g>
<g>
</g>
<g>
</g>
<g>
</g>
<g>
</g>
<g>
</g>
<g>
</g>
<g>
</g>
<g>
</g>
<g>
</g>
<g>
</g>
</svg>
