<?xml version="1.0" encoding="iso-8859-1"?>
<!-- Generator: Adobe Illustrator 19.0.0, SVG Export Plug-In . SVG Version: 6.00 Build 0)  -->
<svg version="1.1" id="Layer_1" xmlns="http://www.w3.org/2000/svg" xmlns:xlink="http://www.w3.org/1999/xlink" x="0px" y="0px"
	 viewBox="0 0 392.663 392.663" style="enable-background:new 0 0 392.663 392.663;" xml:space="preserve">
<rect x="32.776" y="182.109" style="fill:#FFFFFF;" width="327.111" height="188.574"/>
<path style="fill:#FFC10D;" d="M81.261,136.727v23.596h22.303v-32.711c0-0.388,0-0.776,0.065-1.228
	c5.236-47.321,45.123-82.941,92.703-82.941s87.402,35.62,92.703,82.941c0.065,0.388,0.065,0.776,0.065,1.228v32.711h22.303v-23.596
	c-0.129-63.418-51.782-115.071-115.2-115.071S81.261,73.309,81.261,136.727z"/>
<path style="fill:#56ACE0;" d="M309.721,333.576c-6.012,0-10.925-4.848-10.925-10.925c0-6.012,4.848-10.925,10.925-10.925h28.38
	v-26.376h-48.42c-6.012,0-10.925-4.848-10.925-10.925c0-6.012,4.848-10.925,10.925-10.925h48.42V203.83H54.626v15.321h48.549
	c6.012,0,10.925,4.848,10.925,10.925c0,6.012-4.848,10.925-10.925,10.925H54.626v26.44h28.38c6.012,0,10.925,4.848,10.925,10.925
	c0,6.012-4.848,10.925-10.925,10.925h-28.38v59.604h283.539v-15.321H309.721L309.721,333.576z"/>
<path d="M196.396,287.612h-0.065C196.008,287.612,196.331,287.612,196.396,287.612z"/>
<path d="M194.844,265.632h0.065C195.168,265.632,194.909,265.632,194.844,265.632z"/>
<g>
	<path style="fill:#194F82;" d="M196.331,311.855c-7.24,0-13.188-5.947-13.188-13.188c0-4.913-4.008-8.986-8.986-8.986
		s-8.986,4.008-8.986,8.986c0,14.093,9.374,25.859,22.109,29.737v5.818c0,4.978,4.008,8.986,8.986,8.986
		c4.913,0,8.986-4.008,8.986-8.986v-5.818c12.8-3.879,22.174-15.774,22.174-29.737c0-17.131-15.127-30.966-32.194-30.966
		c-0.129,0-0.129,0-0.065,0c-6.723-0.646-11.96-6.271-11.96-13.123c0-7.24,5.947-13.188,13.188-13.188
		c7.24,0,13.188,5.947,13.188,13.188c0,4.913,4.008,8.986,8.986,8.986s8.986-4.008,8.986-8.986c0-14.093-9.374-25.859-22.174-29.737
		v-5.818c0-4.913-4.008-8.986-8.986-8.986s-8.986,4.008-8.986,8.986v5.818c-12.8,3.879-22.109,15.774-22.109,29.737
		c0,17.131,13.899,31.095,31.095,31.095c0.129,0,0.129,0,0.065,0c6.723,0.646,13.123,6.206,13.123,13.059
		C209.519,305.907,203.572,311.855,196.331,311.855z"/>
	<path style="fill:#194F82;" d="M370.812,160.453h-37.56v-23.596C333.188,61.414,271.838,0,196.331,0S59.475,61.414,59.475,136.857
		v23.596H21.851c-6.012,0-10.925,4.848-10.925,10.925v210.36c0,6.012,4.848,10.925,10.925,10.925h348.962
		c6.012,0,10.925-4.848,10.925-10.925v-210.36C381.737,165.366,376.824,160.453,370.812,160.453z M81.261,136.921
		c0-63.418,51.588-115.071,115.071-115.071s115.071,51.588,115.071,115.071v23.596h-22.303v-32.711c0-0.388,0-0.776-0.065-1.228
		c-5.236-47.321-45.123-82.941-92.703-82.941s-87.402,35.62-92.703,82.941c-0.065,0.388-0.065,0.776-0.065,1.228v32.711H81.261
		V136.921L81.261,136.921z M267.249,128.388v32.065H125.414v-32.065c4.331-35.943,34.715-62.901,70.917-62.901
		C232.598,65.487,263.046,92.444,267.249,128.388z M359.887,370.812H32.776V182.238h327.111V370.812L359.887,370.812z"/>
</g>
<g>
</g>
<g>
</g>
<g>
</g>
<g>
</g>
<g>
</g>
<g>
</g>
<g>
</g>
<g>
</g>
<g>
</g>
<g>
</g>
<g>
</g>
<g>
</g>
<g>
</g>
<g>
</g>
<g>
</g>
</svg>
